HIERARCHY
ROOT Hips
{
	OFFSET 0.00 0.00 0.00
	CHANNELS 6 Xposition Yposition Zposition Xrotation Yrotation Zrotation
	JOINT Spine
	{
		OFFSET 0.00000 2.10617 3.15926
		CHANNELS 3 Xrotation Yrotation Zrotation
		JOINT Spine1
		{
			OFFSET 0.00000 0.73147 4.14835
			CHANNELS 3 Xrotation Yrotation Zrotation
			JOINT Spine2
			{
				OFFSET 0.00000 0.36713 4.19631
				CHANNELS 3 Xrotation Yrotation Zrotation
				JOINT Spine3
				{
					OFFSET 0.00000 0.00000 4.21234
					CHANNELS 3 Xrotation Yrotation Zrotation
					JOINT Neck
					{
						OFFSET 0.00000 -1.57962 11.05740
						CHANNELS 3 Xrotation Yrotation Zrotation
						JOINT Head
						{
							OFFSET 0.00000 -1.00576 5.70398
							CHANNELS 3 Xrotation Yrotation Zrotation
							End Site
							{
								OFFSET 0.00000 0.00001 6.81873
							}
						}
					}
					JOINT RightShoulder
					{
						OFFSET -1.28113 -2.13521 6.91810
						CHANNELS 3 Xrotation Yrotation Zrotation
						JOINT RightArm
						{
							OFFSET -6.36294 0.00000 0.00000
							CHANNELS 3 Xrotation Yrotation Zrotation
							JOINT RightForeArm
							{
								OFFSET -10.12221 0.00000 0.00000
								CHANNELS 3 Xrotation Yrotation Zrotation
								JOINT RightHand
								{
									OFFSET -10.76713 0.00000 0.00000
									CHANNELS 3 Xrotation Yrotation Zrotation
									JOINT RightHandEnd
									{
										OFFSET -2.78915 0.00000 0.00000
										CHANNELS 3 Xrotation Yrotation Zrotation
										End Site
										{
											OFFSET -2.78915 0.00000 0.00000
										}
									}
									JOINT RightHandThumb1
									{
										OFFSET -1.11566 -1.85944 -0.74377
										CHANNELS 3 Yrotation Xrotation Zrotation
										End Site
										{
											OFFSET -2.69412 -0.72189 0.00000
										}
									}
								}
							}
						}
					}
					JOINT LeftShoulder
					{
						OFFSET 1.28113 -2.13521 6.91810
						CHANNELS 3 Xrotation Yrotation Zrotation
						JOINT LeftArm
						{
							OFFSET 6.36294 0.00000 0.00000
							CHANNELS 3 Xrotation Yrotation Zrotation
							JOINT LeftForeArm
							{
								OFFSET 10.12221 0.00000 0.00000
								CHANNELS 3 Xrotation Yrotation Zrotation
								JOINT LeftHand
								{
									OFFSET 10.76713 0.00000 0.00000
									CHANNELS 3 Xrotation Yrotation Zrotation
									JOINT LeftHandEnd
									{
										OFFSET 2.78915 0.00000 0.00000
										CHANNELS 3 Xrotation Yrotation Zrotation
										End Site
										{
											OFFSET 2.78915 0.00000 0.00000
										}
									}
									JOINT LeftHandThumb1
									{
										OFFSET 1.11566 -1.85944 -0.74377
										CHANNELS 3 Yrotation Xrotation Zrotation
										End Site
										{
											OFFSET 2.69412 -0.72189 0.00000
										}
									}
								}
							}
						}
					}
				}
			}
		}
	}
	JOINT RightUpLeg
	{
		OFFSET -3.80068 0.00000 -1.11031
		CHANNELS 3 Xrotation Yrotation Zrotation
		JOINT RightLeg
		{
			OFFSET 0.00001 0.00000 -17.00167
			CHANNELS 3 Xrotation Yrotation Zrotation
			JOINT RightFoot
			{
				OFFSET 0.00001 0.00000 -17.96841
				CHANNELS 3 Xrotation Yrotation Zrotation
				JOINT RightToeBase
				{
					OFFSET 0.00000 -5.07501 -1.84715
					CHANNELS 3 Xrotation Yrotation Zrotation
					End Site
					{
						OFFSET 0.00000 -3.07471 -0.00000
					}
				}
			}
		}
	}
	JOINT LeftUpLeg
	{
		OFFSET 3.80068 0.00000 -1.11031
		CHANNELS 3 Xrotation Yrotation Zrotation
		JOINT LeftLeg
		{
			OFFSET 0.00001 0.00000 -17.00167
			CHANNELS 3 Xrotation Yrotation Zrotation
			JOINT LeftFoot
			{
				OFFSET 0.00001 0.00000 -17.96841
				CHANNELS 3 Xrotation Yrotation Zrotation
				JOINT LeftToeBase
				{
					OFFSET 0.00000 -5.07501 -1.84715
					CHANNELS 3 Xrotation Yrotation Zrotation
					End Site
					{
						OFFSET 0.00000 -3.07471 -0.00000
					}
				}
			}
		}
	}
}
MOTION
Frames: 18
Frame Time: 0.008342
 46.2964 -16.0902 38.3435 1.1750 -1.0100 -93.6130 -1.1027 0.4535 0.2743 -1.2155 -0.2660 -0.0817 4.0964 -1.8185 -1.2691 1.4976 -0.1993 0.1651 1.9740 4.7058 -5.6535 -1.7650 -1.0890 -8.3392 5.0083 -3.5973 1.8575 -24.4678 -18.7150 -19.0320 0.0000 0.0000 24.8383 -5.7227 12.7324 3.7261 0.0000 -0.0000 -0.0000 0.0000 -0.0000 -0.0000 3.9016 -0.4011 -1.0424 -29.2971 23.4292 26.5529 -0.0000 -0.0000 -22.3169 -20.9208 -17.2986 4.1688 0.0000 -0.0000 0.0000 -0.0000 0.0000 -0.0000 -1.3322 2.2742 -29.5071 6.3635 0.0000 0.0000 -5.0169 -5.2334 0.7194 4.3731 0.0000 0.0000 0.1080 -3.5371 22.3265 5.2477 0.0000 0.0000 -9.0060 15.9833 4.5574 11.7452 0.0000 0.0000
 46.2963 -16.0895 38.3436 1.1751 -1.0111 -93.6104 -1.1056 0.4546 0.2734 -1.2180 -0.2682 -0.0827 4.0999 -1.8200 -1.2690 1.4981 -0.1997 0.1660 1.9755 4.7094 -5.6514 -1.7602 -1.0872 -8.3372 5.0059 -3.5943 1.8558 -24.4764 -18.7148 -19.0391 0.0000 0.0000 24.8427 -5.7293 12.7410 3.7215 0.0000 -0.0000 -0.0000 -0.0000 -0.0000 -0.0000 3.9017 -0.3901 -1.0385 -29.2947 23.4160 26.5417 -0.0000 -0.0000 -22.3041 -20.9009 -17.2915 4.1606 -0.0000 -0.0000 0.0000 0.0000 -0.0000 0.0000 -1.3330 2.2723 -29.5079 6.3638 0.0000 0.0000 -5.0197 -5.2277 0.7170 4.3754 0.0000 0.0000 0.1095 -3.5377 22.3245 5.2416 0.0000 0.0000 -9.0021 15.9861 4.5552 11.7392 0.0000 0.0000
 46.2962 -16.0884 38.3437 1.1758 -1.0122 -93.6077 -1.1102 0.4550 0.2737 -1.2199 -0.2696 -0.0835 4.1040 -1.8231 -1.2705 1.4993 -0.1998 0.1672 1.9780 4.7139 -5.6486 -1.7559 -1.0849 -8.3342 5.0040 -3.5905 1.8538 -24.4868 -18.7149 -19.0466 0.0000 0.0000 24.8470 -5.7404 12.7504 3.7176 0.0000 -0.0000 -0.0000 -0.0000 -0.0000 0.0000 3.9034 -0.3786 -1.0317 -29.2947 23.4026 26.5287 -0.0000 -0.0000 -22.2897 -20.8760 -17.2849 4.1470 0.0000 0.0000 0.0000 -0.0000 0.0000 0.0000 -1.3335 2.2691 -29.5072 6.3633 0.0000 0.0000 -5.0227 -5.2203 0.7131 4.3786 0.0000 0.0000 0.1117 -3.5392 22.3261 5.2343 0.0000 0.0000 -8.9968 15.9899 4.5492 11.7327 0.0000 0.0000
 46.2961 -16.0870 38.3438 1.1777 -1.0126 -93.6034 -1.1154 0.4540 0.2746 -1.2209 -0.2701 -0.0839 4.1086 -1.8275 -1.2735 1.5006 -0.1999 0.1684 1.9826 4.7194 -5.6462 -1.7526 -1.0830 -8.3294 5.0027 -3.5874 1.8511 -24.4974 -18.7134 -19.0539 0.0000 0.0000 24.8516 -5.7555 12.7580 3.7137 0.0000 -0.0000 -0.0000 0.0000 -0.0000 -0.0000 3.9054 -0.3673 -1.0234 -29.2943 23.3895 26.5147 -0.0000 -0.0000 -22.2740 -20.8457 -17.2818 4.1273 0.0000 0.0000 0.0000 -0.0000 0.0000 0.0000 -1.3322 2.2635 -29.5062 6.3614 0.0000 0.0000 -5.0256 -5.2115 0.7073 4.3837 0.0000 0.0000 0.1144 -3.5428 22.3289 5.2274 0.0000 0.0000 -8.9913 15.9947 4.5409 11.7263 0.0000 0.0000
 46.2958 -16.0852 38.3439 1.1807 -1.0097 -93.5975 -1.1174 0.4530 0.2745 -1.2230 -0.2711 -0.0840 4.1137 -1.8334 -1.2767 1.5024 -0.2000 0.1696 1.9892 4.7265 -5.6429 -1.7511 -1.0809 -8.3240 5.0013 -3.5816 1.8482 -24.5079 -18.7136 -19.0635 0.0000 0.0000 24.8564 -5.7718 12.7655 3.7114 0.0000 0.0000 0.0000 -0.0000 -0.0000 0.0000 3.9096 -0.3546 -1.0125 -29.2946 23.3767 26.4974 -0.0000 -0.0000 -22.2574 -20.8136 -17.2813 4.1026 0.0000 0.0000 -0.0000 -0.0000 0.0000 0.0000 -1.3257 2.2558 -29.5071 6.3567 0.0000 0.0000 -5.0278 -5.2020 0.7020 4.3894 0.0000 0.0000 0.1206 -3.5480 22.3325 5.2205 0.0000 0.0000 -8.9860 16.0000 4.5308 11.7207 0.0000 0.0000
 46.2956 -16.0833 38.3440 1.1830 -1.0075 -93.5907 -1.1212 0.4510 0.2755 -1.2235 -0.2718 -0.0842 4.1185 -1.8380 -1.2803 1.5045 -0.1995 0.1707 1.9975 4.7319 -5.6406 -1.7504 -1.0782 -8.3167 5.0005 -3.5792 1.8440 -24.5158 -18.7111 -19.0702 0.0000 0.0000 24.8602 -5.7889 12.7702 3.7101 -0.0000 -0.0000 -0.0000 0.0000 -0.0000 0.0000 3.9122 -0.3452 -1.0022 -29.2975 23.3649 26.4849 -0.0000 -0.0000 -22.2431 -20.7769 -17.2817 4.0735 0.0000 -0.0000 0.0000 0.0000 -0.0000 -0.0000 -1.3208 2.2492 -29.5088 6.3538 0.0000 0.0000 -5.0309 -5.1921 0.6967 4.3964 0.0000 0.0000 0.1253 -3.5527 22.3367 5.2143 0.0000 0.0000 -8.9803 16.0052 4.5197 11.7168 0.0000 0.0000
 46.2952 -16.0812 38.3442 1.1861 -0.9997 -93.5822 -1.1195 0.4496 0.2762 -1.2246 -0.2738 -0.0848 4.1238 -1.8429 -1.2832 1.5066 -0.1993 0.1716 2.0082 4.7384 -5.6375 -1.7518 -1.0754 -8.3096 5.0000 -3.5734 1.8391 -24.5231 -18.7114 -19.0795 0.0000 0.0000 24.8645 -5.8019 12.7730 3.7095 -0.0000 0.0000 0.0000 0.0000 -0.0000 -0.0000 3.9156 -0.3364 -0.9909 -29.3005 23.3550 26.4715 -0.0000 -0.0000 -22.2295 -20.7406 -17.2853 4.0413 -0.0000 0.0000 0.0000 -0.0000 0.0000 0.0000 -1.3081 2.2412 -29.5130 6.3478 0.0000 0.0000 -5.0331 -5.1829 0.6927 4.4036 0.0000 0.0000 0.1364 -3.5581 22.3424 5.2072 0.0000 0.0000 -8.9741 16.0108 4.5062 11.7151 0.0000 0.0000
 46.2956 -16.0792 38.3442 1.1864 -0.9990 -93.5731 -1.1239 0.4490 0.2773 -1.2270 -0.2748 -0.0852 4.1306 -1.8479 -1.2858 1.5089 -0.1991 0.1724 2.0192 4.7449 -5.6336 -1.7519 -1.0728 -8.3024 4.9992 -3.5694 1.8332 -24.5284 -18.7100 -19.0872 0.0000 0.0000 24.8682 -5.8095 12.7724 3.7094 0.0000 0.0000 -0.0000 -0.0000 0.0000 0.0000 3.9189 -0.3271 -0.9787 -29.3056 23.3458 26.4576 -0.0000 -0.0000 -22.2178 -20.7045 -17.2923 4.0069 0.0000 -0.0000 0.0000 -0.0000 0.0000 0.0000 -1.3065 2.2374 -29.5173 6.3476 0.0000 0.0000 -5.0371 -5.1740 0.6884 4.4117 0.0000 0.0000 0.1377 -3.5610 22.3447 5.2020 0.0000 0.0000 -8.9681 16.0144 4.4960 11.7162 0.0000 0.0000
 46.2961 -16.0770 38.3443 1.1883 -0.9972 -93.5622 -1.1268 0.4473 0.2779 -1.2287 -0.2758 -0.0853 4.1368 -1.8532 -1.2882 1.5113 -0.1989 0.1733 2.0313 4.7503 -5.6294 -1.7518 -1.0699 -8.2955 4.9983 -3.5646 1.8254 -24.5315 -18.7107 -19.0947 0.0000 0.0000 24.8718 -5.8080 12.7696 3.7098 -0.0000 -0.0000 0.0000 -0.0000 0.0000 0.0000 3.9218 -0.3199 -0.9673 -29.3125 23.3387 26.4457 -0.0000 -0.0000 -22.2092 -20.6702 -17.3009 3.9728 -0.0000 -0.0000 -0.0000 0.0000 0.0000 -0.0000 -1.3025 2.2311 -29.5222 6.3448 0.0000 0.0000 -5.0392 -5.1658 0.6834 4.4186 0.0000 0.0000 0.1387 -3.5664 22.3470 5.1991 0.0000 0.0000 -8.9632 16.0185 4.4845 11.7203 0.0000 0.0000
 46.2968 -16.0749 38.3443 1.1897 -0.9949 -93.5502 -1.1285 0.4455 0.2782 -1.2302 -0.2769 -0.0855 4.1427 -1.8577 -1.2892 1.5135 -0.1987 0.1740 2.0444 4.7544 -5.6249 -1.7512 -1.0660 -8.2890 4.9975 -3.5593 1.8157 -24.5324 -18.7133 -19.1014 0.0000 0.0000 24.8750 -5.7971 12.7648 3.7097 -0.0000 -0.0000 0.0000 -0.0000 -0.0000 -0.0000 3.9233 -0.3144 -0.9573 -29.3194 23.3330 26.4361 -0.0000 -0.0000 -22.2041 -20.6384 -17.3091 3.9406 -0.0000 0.0000 -0.0000 0.0000 0.0000 -0.0000 -1.2985 2.2258 -29.5288 6.3426 0.0000 0.0000 -5.0408 -5.1592 0.6792 4.4256 0.0000 0.0000 0.1394 -3.5711 22.3477 5.1966 0.0000 0.0000 -8.9582 16.0222 4.4738 11.7273 0.0000 0.0000
 46.2978 -16.0730 38.3444 1.1901 -0.9928 -93.5378 -1.1297 0.4435 0.2785 -1.2312 -0.2777 -0.0858 4.1481 -1.8612 -1.2890 1.5157 -0.1985 0.1746 2.0583 4.7566 -5.6202 -1.7493 -1.0610 -8.2830 4.9962 -3.5536 1.8042 -24.5312 -18.7180 -19.1076 0.0000 0.0000 24.8781 -5.7753 12.7581 3.7090 0.0000 0.0000 0.0000 0.0000 -0.0000 0.0000 3.9242 -0.3106 -0.9493 -29.3273 23.3285 26.4293 -0.0000 -0.0000 -22.2031 -20.6088 -17.3165 3.9117 0.0000 0.0000 0.0000 0.0000 0.0000 -0.0000 -1.2956 2.2222 -29.5365 6.3417 0.0000 0.0000 -5.0422 -5.1543 0.6760 4.4319 0.0000 0.0000 0.1397 -3.5744 22.3469 5.1936 0.0000 0.0000 -8.9526 16.0257 4.4641 11.7361 0.0000 0.0000
 46.2990 -16.0712 38.3444 1.1900 -0.9911 -93.5250 -1.1301 0.4414 0.2780 -1.2323 -0.2779 -0.0860 4.1533 -1.8644 -1.2877 1.5177 -0.1983 0.1753 2.0723 4.7573 -5.6145 -1.7456 -1.0549 -8.2778 4.9957 -3.5468 1.7915 -24.5295 -18.7256 -19.1128 0.0000 0.0000 24.8809 -5.7430 12.7504 3.7069 -0.0000 -0.0000 -0.0000 0.0000 -0.0000 -0.0000 3.9235 -0.3075 -0.9411 -29.3334 23.3257 26.4224 -0.0000 -0.0000 -22.2054 -20.5834 -17.3239 3.8868 -0.0000 0.0000 -0.0000 -0.0000 0.0000 0.0000 -1.2940 2.2197 -29.5449 6.3417 0.0000 0.0000 -5.0430 -5.1508 0.6731 4.4371 0.0000 0.0000 0.1388 -3.5770 22.3435 5.1906 0.0000 0.0000 -8.9469 16.0289 4.4563 11.7468 0.0000 0.0000
 46.3005 -16.0696 38.3444 1.1893 -0.9900 -93.5122 -1.1302 0.4389 0.2770 -1.2327 -0.2779 -0.0861 4.1575 -1.8663 -1.2854 1.5196 -0.1984 0.1762 2.0872 4.7555 -5.6087 -1.7406 -1.0470 -8.2728 4.9924 -3.5405 1.7787 -24.5240 -18.7341 -19.1187 0.0000 0.0000 24.8843 -5.7034 12.7408 3.7031 -0.0000 0.0000 0.0000 0.0000 -0.0000 -0.0000 3.9224 -0.3063 -0.9349 -29.3404 23.3240 26.4185 -0.0000 -0.0000 -22.2117 -20.5594 -17.3299 3.8668 0.0000 0.0000 -0.0000 0.0000 -0.0000 -0.0000 -1.2939 2.2184 -29.5537 6.3429 0.0000 0.0000 -5.0435 -5.1486 0.6706 4.4417 0.0000 0.0000 0.1375 -3.5785 22.3382 5.1865 0.0000 0.0000 -8.9405 16.0324 4.4497 11.7582 0.0000 0.0000
 46.3022 -16.0682 38.3444 1.1887 -0.9891 -93.4992 -1.1289 0.4365 0.2745 -1.2340 -0.2771 -0.0860 4.1618 -1.8689 -1.2816 1.5215 -0.1988 0.1773 2.1025 4.7534 -5.6022 -1.7341 -1.0382 -8.2683 4.9905 -3.5314 1.7634 -24.5204 -18.7475 -19.1225 0.0000 0.0000 24.8868 -5.6559 12.7327 3.6974 0.0000 0.0000 0.0000 -0.0000 0.0000 -0.0000 3.9220 -0.3046 -0.9287 -29.3465 23.3235 26.4132 -0.0000 -0.0000 -22.2204 -20.5384 -17.3363 3.8508 0.0000 0.0000 -0.0000 -0.0000 0.0000 -0.0000 -1.2944 2.2173 -29.5633 6.3443 0.0000 0.0000 -5.0431 -5.1474 0.6686 4.4449 0.0000 0.0000 0.1357 -3.5798 22.3303 5.1823 0.0000 0.0000 -8.9339 16.0365 4.4449 11.7692 0.0000 0.0000
 46.3046 -16.0670 38.3444 1.1871 -0.9943 -93.4865 -1.1314 0.4327 0.2728 -1.2381 -0.2722 -0.0858 4.1679 -1.8741 -1.2776 1.5231 -0.1983 0.1772 2.1177 4.7494 -5.5953 -1.7250 -1.0283 -8.2635 4.9883 -3.5241 1.7481 -24.5160 -18.7611 -19.1232 0.0000 0.0000 24.8886 -5.6069 12.7251 3.6898 -0.0000 0.0000 0.0000 0.0000 -0.0000 0.0000 3.9191 -0.3012 -0.9235 -29.3476 23.3214 26.4073 -0.0000 -0.0000 -22.2317 -20.5214 -17.3444 3.8380 -0.0000 0.0000 -0.0000 -0.0000 0.0000 0.0000 -1.3042 2.2179 -29.5708 6.3492 0.0000 0.0000 -5.0432 -5.1461 0.6647 4.4474 0.0000 0.0000 0.1255 -3.5804 22.3174 5.1799 0.0000 0.0000 -8.9278 16.0401 4.4444 11.7796 0.0000 0.0000
 46.3071 -16.0661 38.3445 1.1846 -1.0002 -93.4747 -1.1350 0.4308 0.2698 -1.2398 -0.2721 -0.0860 4.1720 -1.8736 -1.2735 1.5250 -0.1992 0.1784 2.1340 4.7442 -5.5883 -1.7152 -1.0173 -8.2579 4.9836 -3.5169 1.7350 -24.5097 -18.7751 -19.1254 0.0000 0.0000 24.8910 -5.5596 12.7163 3.6810 0.0000 -0.0000 0.0000 0.0000 -0.0000 0.0000 3.9167 -0.2985 -0.9182 -29.3492 23.3201 26.4025 -0.0000 -0.0000 -22.2458 -20.5046 -17.3537 3.8287 -0.0000 0.0000 -0.0000 -0.0000 -0.0000 0.0000 -1.3159 2.2201 -29.5782 6.3557 0.0000 0.0000 -5.0439 -5.1450 0.6612 4.4488 0.0000 0.0000 0.1153 -3.5794 22.3027 5.1755 0.0000 0.0000 -8.9208 16.0440 4.4460 11.7885 0.0000 0.0000
 46.3099 -16.0653 38.3445 1.1824 -1.0092 -93.4635 -1.1403 0.4271 0.2663 -1.2428 -0.2674 -0.0853 4.1765 -1.8766 -1.2697 1.5271 -0.1997 0.1790 2.1516 4.7386 -5.5809 -1.7052 -1.0054 -8.2513 4.9797 -3.5097 1.7231 -24.5045 -18.7898 -19.1255 0.0000 0.0000 24.8923 -5.5176 12.7078 3.6714 -0.0000 0.0000 -0.0000 -0.0000 -0.0000 0.0000 3.9141 -0.2944 -0.9122 -29.3485 23.3185 26.3972 -0.0000 -0.0000 -22.2618 -20.4892 -17.3680 3.8201 0.0000 0.0000 0.0000 -0.0000 0.0000 -0.0000 -1.3318 2.2221 -29.5838 6.3632 0.0000 0.0000 -5.0445 -5.1433 0.6562 4.4500 0.0000 0.0000 0.1011 -3.5789 22.2859 5.1721 0.0000 0.0000 -8.9141 16.0481 4.4495 11.7951 0.0000 0.0000
 46.3126 -16.0646 38.3446 1.1805 -1.0158 -93.4536 -1.1432 0.4244 0.2632 -1.2462 -0.2661 -0.0858 4.1811 -1.8765 -1.2661 1.5293 -0.2004 0.1805 2.1709 4.7317 -5.5750 -1.6967 -0.9925 -8.2422 4.9766 -3.5035 1.7120 -24.4990 -18.8047 -19.1230 0.0000 0.0000 24.8925 -5.4851 12.7001 3.6620 -0.0000 -0.0000 0.0000 0.0000 0.0000 -0.0000 3.9134 -0.2919 -0.9061 -29.3496 23.3182 26.3933 -0.0000 -0.0000 -22.2793 -20.4731 -17.3889 3.8125 -0.0000 -0.0000 -0.0000 -0.0000 0.0000 -0.0000 -1.3449 2.2237 -29.5883 6.3700 0.0000 0.0000 -5.0452 -5.1413 0.6509 4.4508 0.0000 0.0000 0.0907 -3.5780 22.2691 5.1669 0.0000 0.0000 -8.9069 16.0527 4.4538 11.7995 0.0000 0.0000
